<svg xmlns="http://www.w3.org/2000/svg" xmlns:xlink="http://www.w3.org/1999/xlink" viewBox="0 0 1606.08 386.68"><defs><style>.cls-1{fill:url(#linear-gradient);}.cls-2{fill:url(#linear-gradient-2);}.cls-3{fill:url(#linear-gradient-3);}.cls-4{fill:url(#linear-gradient-4);}.cls-5{fill:url(#linear-gradient-5);}.cls-6{fill:url(#linear-gradient-6);}.cls-7{fill:url(#linear-gradient-7);}.cls-8{fill:url(#linear-gradient-8);}.cls-9{fill:url(#linear-gradient-9);}.cls-10{fill:url(#linear-gradient-10);}.cls-11{fill:url(#linear-gradient-11);}.cls-12{fill:url(#linear-gradient-12);}.cls-13{fill:url(#linear-gradient-13);}.cls-14{fill:url(#linear-gradient-14);}.cls-15{fill:url(#linear-gradient-15);}.cls-16{fill:url(#linear-gradient-16);}.cls-17{fill:#666;}</style><linearGradient id="linear-gradient" x1="410.98" y1="187.63" x2="1523.33" y2="187.63" gradientUnits="userSpaceOnUse"><stop offset="0" stop-color="#24b24b"></stop><stop offset="1" stop-color="#054e8a"></stop></linearGradient><linearGradient id="linear-gradient-2" x1="410.98" y1="187.77" x2="1523.33" y2="187.77" xlink:href="#linear-gradient"></linearGradient><linearGradient id="linear-gradient-3" x1="410.98" y1="229.34" x2="1523.33" y2="229.34" xlink:href="#linear-gradient"></linearGradient><linearGradient id="linear-gradient-4" x1="410.98" y1="229.25" x2="1523.33" y2="229.25" xlink:href="#linear-gradient"></linearGradient><linearGradient id="linear-gradient-5" x1="410.98" y1="196.78" x2="1523.33" y2="196.78" xlink:href="#linear-gradient"></linearGradient><linearGradient id="linear-gradient-6" x1="410.98" y1="227.72" x2="1523.33" y2="227.72" xlink:href="#linear-gradient"></linearGradient><linearGradient id="linear-gradient-7" x1="410.98" y1="244.48" x2="1523.33" y2="244.48" xlink:href="#linear-gradient"></linearGradient><linearGradient id="linear-gradient-8" x1="410.98" y1="227.74" x2="1523.33" y2="227.74" xlink:href="#linear-gradient"></linearGradient><linearGradient id="linear-gradient-9" x1="410.98" y1="227.77" x2="1523.33" y2="227.77" xlink:href="#linear-gradient"></linearGradient><linearGradient id="linear-gradient-10" x1="410.98" y1="109.64" x2="1523.33" y2="109.64" xlink:href="#linear-gradient"></linearGradient><linearGradient id="linear-gradient-11" x1="410.98" y1="109.75" x2="1523.33" y2="109.75" xlink:href="#linear-gradient"></linearGradient><linearGradient id="linear-gradient-12" x1="410.98" y1="109.85" x2="1523.33" y2="109.85" xlink:href="#linear-gradient"></linearGradient><linearGradient id="linear-gradient-13" x1="410.98" y1="113.92" x2="1523.33" y2="113.92" xlink:href="#linear-gradient"></linearGradient><linearGradient id="linear-gradient-14" x1="410.98" y1="113.95" x2="1523.33" y2="113.95" xlink:href="#linear-gradient"></linearGradient><linearGradient id="linear-gradient-15" x1="218.84" y1="52.57" x2="-58.06" y2="356.66" gradientUnits="userSpaceOnUse"><stop offset="0" stop-color="#f8de00"></stop><stop offset="1" stop-color="#ed2026"></stop></linearGradient><linearGradient id="linear-gradient-16" x1="262.47" y1="-8.81" x2="5.5" y2="289.91" xlink:href="#linear-gradient-15"></linearGradient></defs><g id="Layer_2" data-name="Layer 2"><g id="Layer_1-2" data-name="Layer 1"><path class="cls-1" d="M982.08,158.69c3.49-3.53,4.19-7.42,7.48-9.54a23.64,23.64,0,0,1,12.69-4.17c18.33-.17,36.66,0,55-.21,4.62,0,6.55,1.15,6,6.36-.87,8.72.8,17.59-1.92,26.26-2.37,7.58-8,11.74-14.93,13.34-17.05,3.93-34.49,1.11-51.74,1.88-2.6.11-5,.12-7.55,1.73-4.48,2.83-5.08,6.79-5.07,11.39q.08,43.49.06,87a46.76,46.76,0,0,1-.54,9.44c-1.34,6.54-2.89,8.15-9.73,8.27-9.33.17-18.67.29-28-.07-11.5-.44-15.1-5.05-13.2-16.47a38.58,38.58,0,0,0,.59-6.4c0-55.16.14-110.31-.13-165.46,0-8.49-.29-16.72,2.68-24.9,3.34-9.22,9.53-16.18,16.78-22.13,10.14-8.32,22.16-10.51,35.18-10.31,29.49.46,59,.23,88.48.06,4.74,0,6.53,1.19,6.12,6.22a175.21,175.21,0,0,0-.09,18.48c.24,10-9.21,22.14-22.2,21.82-21-.51-42-.2-63-.23a21.39,21.39,0,0,0-3,.09c-9.57,1.36-10,1.91-10,11.65Z"></path><path class="cls-2" d="M462.19,158.88c5.3-10.16,12.76-14.31,23.24-14.09,17.48.36,35,.26,52.46.12,4.42,0,5.81,1.56,5.5,5.88-.38,5.3-.09,10.65-.18,16-.28,15.94-8.77,25-24.82,25.56-14.31.51-28.65.35-43,.42-8.95,0-12.32,2.74-13.28,11.58a120.5,120.5,0,0,0-.35,13.45c0,26.82.16,53.63.17,80.45a43.34,43.34,0,0,1-.9,7.42,3.56,3.56,0,0,1-3,3.29c-13.33,3.46-26.82,1.17-40.22,1.25-3.91,0-6.54-3-6.92-7.59-.41-4.87.37-9.63.37-14.45,0-55.47.23-110.95-.23-166.42-.09-10.14.29-19.88,4.48-29a46.74,46.74,0,0,1,17.18-19.83c9.26-6,19.58-8.14,30.58-8.08,30.32.15,60.64.18,91-.1,4.3,0,5.63,1.66,5.74,5.08.27,8.81.81,17.7-1,26.39-1.7,8.38-11.26,15.06-21,15.08-21.16.06-42.31,0-63.47,0-12.46,0-12.76.4-12.81,13,0,10-.19,20-.24,29.94A39.2,39.2,0,0,0,462.19,158.88Z"></path><path class="cls-3" d="M1368.21,200.92c0,14.16.07,28.32,0,42.48-.2,32.06-17.32,54.17-46.44,65-17.53,6.5-36.11,6.23-54.17,3.75-15.71-2.15-30.95-8.2-42.19-19.86-12.87-13.34-19.89-29.73-19.22-48.92.43-12.48.09-25,.1-37.47q0-26,0-52c0-7.59,2-9,9.75-8.77,10,.31,20,.45,30-.12,5.09-.28,9,2.43,9,7.88-.09,19.49-.28,39-.17,58.46.06,12.1-.9,24.27,1.48,36.29,3.91,19.71,24,24.93,38.5,21.87a38.42,38.42,0,0,0,10.22-3.59c11-5.87,13.71-16.26,14-27.15.62-27.47.5-55,.59-82.44,0-9.9,1.29-11.26,11-11.25s19.32,0,29-.14c6.56-.07,8.77,2,8.77,8.51q0,23.73,0,47.47Z"></path><path class="cls-4" d="M559.31,201.69V153.22c0-6.3,1-7.85,7.45-8.09,11-.4,22-.41,33,0,6.63.23,7.68,1.87,7.69,8.56,0,28-.5,56,.3,83.94.49,17.3,9.42,30.6,28.19,32.11,9.86.8,18.64-.22,26.23-6.82,5-4.3,8.54-9.7,9.07-16.26,2.51-30.73,1.91-61.54,1.79-92.32,0-7.66,2.4-9.24,9.7-9.37,10.31-.17,20.64,0,31,.22,5.32.1,8.23,2.9,8.21,8.17-.1,30.15,0,60.29-.67,90.42-.27,12.63-3.07,24.94-9.72,36s-16.23,18.79-27.61,24.7c-20,10.41-41.63,10.29-62.93,7.71-15.55-1.88-30.45-7.93-41.93-19.49-12.42-12.51-19.8-27.47-19.72-45.56C559.36,232,559.31,216.85,559.31,201.69Z"></path><path class="cls-5" d="M1457.64,173.81q0-42.23,0-84.44c0-6.58.07-6.81,6.61-6.93,8.16-.16,16.32-.18,24.47.08,10.9.35,18.4,8.34,18.43,19.32,0,12.66.24,25.32-.08,38-.12,4.37,1.26,5.33,5.31,5.1,6.15-.35,12.32-.11,18.48-.09,5.39,0,9,3.37,9.06,8.78q.18,12.24,0,24.48c-.09,6.63-2.79,9.09-9.6,9.18q-8.73.12-17.45.19c-3.95,0-5.71,2-5.7,5.9,0,17.49-1.09,35.07.4,52.43,1,12.15,3.13,19.38,19.67,19.07,12.94-.24,12.94-.05,12.94,13,0,7.83,0,15.66,0,23.48,0,4.32-1.23,6.67-6.09,8-9.6,2.59-19.33,2.19-28.74,1.19-11.11-1.2-22.28-4.07-30.61-12.83-8-8.38-12.36-18.35-14.91-29.64-1.72-7.63-1.6-15.18-1.83-22.76-.37-12-.09-24-.09-36q0-17.73,0-35.46Z"></path><path class="cls-6" d="M1079.24,227.54q0-37.24,0-74.48c0-6.2,2.25-8.18,8.47-8.11,10.32.12,20.65.15,31,0,6.54-.09,9.4,2.49,9.41,8.94,0,2.39-1,5.68,1.08,6.85,1.82,1,3.16-2.37,5-3.38,6.77-3.74,13.87-7,21.48-8.18s15.28-3.06,23.21-2.45c6,.46,7.57,1.5,7.73,7.42.25,9.49.47,19,.55,28.46,0,5.91-3,9.21-8.65,7.82-8.43-2.09-16.63-.54-24.68.65-7.76,1.14-14.18,5.81-18.62,12.78-5,7.92-7.09,16.5-7,25.84.16,23.15.12,46.31.07,69.47,0,10-1.23,11.19-11.2,11.26-9,.07-18,0-27,0a28.5,28.5,0,0,1-5.47-.42c-3.47-.71-5.66-2.12-5.62-6.54.23-25.32.11-50.63.11-75.94Z"></path><path class="cls-7" d="M795.27,207.31c0,15.16-.1,30.32,0,45.48.2,24.41-8,46-21.77,65.75C768,326.49,760.9,333,753.74,339.37s-11.14,6.15-18.61.62c-4.82-3.56-9.51-7.26-14.13-11.07-6.61-5.44-8.34-10.85-5.48-17,1.59-3.42,5.15-4.8,7.54-7.46,12.91-14.35,20.52-30.81,21.3-50.25,1.34-33.43,1.55-66.88,1.46-100.34,0-6.55,2.17-8.7,8.62-8.77,10.66-.12,21.32-.23,32-.25,6.45,0,8.85,2.49,8.86,9Q795.28,180.57,795.27,207.31Z"></path><path class="cls-8" d="M1388.65,227.77q0-36.74,0-73.48c0-6,2.94-9.17,9-9.27q16-.24,32,0c5.92.08,7.66,2.13,7.66,8.32q0,67,0,133.95c0,5.65,0,11.3.16,16.94.07,3-1.22,4.34-4.16,5.12-4.27,1.13-8.57,1.17-12.88,1.22-7.5.09-15,0-22.49-.07-8-.05-9.44-1.39-9.44-9.25q0-36.74,0-73.47Z"></path><path class="cls-9" d="M817.38,227.83c0-24.66.14-49.31-.11-74-.06-5.41,1.43-9.18,9-8.75,10.5.59,20.93-.42,31.38-.1,5.67.18,8.4,2.84,8.4,8.34q0,69.21,0,138.41c0,4.32.3,8.62-.19,13-.45,3.93-2.56,5.6-6,5.65-11.16.14-22.33.37-33.47,0-8.21-.29-9-1.41-9-9.59-.06-24.32,0-48.64,0-72.95Z"></path><path class="cls-10" d="M769.57,136.86c-17.18,1.88-28-13.57-27.52-27.89.5-16.12,12.91-26.65,27.32-26.7,16.2-.06,28.87,11.41,28.06,28.91C796.71,126.52,785.9,137,769.57,136.86Z"></path><path class="cls-11" d="M841.42,136.85c-15.69,2.1-27.23-12.14-26.94-26.87.34-17.24,10.68-28,29.5-27.52,11.5.31,26.31,10.89,25.56,28.21C868.85,126.58,858.55,136.79,841.42,136.85Z"></path><path class="cls-12" d="M1413.11,137.14c-16.15.17-27.4-10.7-27.74-26.43-.36-17.09,11.69-27.17,26.2-28.14,15.7-1,28.71,9.7,28.64,27C1440.14,125.75,1429.84,138.19,1413.11,137.14Z"></path><path class="cls-13" d="M1562.69,131.29V96.55h16.59q5.64,0,8.56,2.46a8.53,8.53,0,0,1,2.92,6.93,11.34,11.34,0,0,1-.68,4.09,6.8,6.8,0,0,1-1.8,2.7,12.42,12.42,0,0,1-1.83,1.33,9.5,9.5,0,0,1-1.43.64v.09a5.76,5.76,0,0,1,3.57,2c1.06,1.16,1.58,2.95,1.58,5.38,0,4.74.64,7.79,1.9,9.15h-6.52a10.43,10.43,0,0,1-.92-5.11q0-5-1.44-7.1c-1-1.4-2.78-2.1-5.47-2.1h-9v14.31Zm6.08-29.78v10.85h10q5.94,0,5.94-5.55c0-2-.55-3.43-1.63-4.18a7.66,7.66,0,0,0-4.41-1.12Z"></path><path class="cls-14" d="M1575.11,83a31,31,0,1,0,31,31A31,31,0,0,0,1575.11,83Zm0,56.46a25.5,25.5,0,1,1,25.5-25.5A25.5,25.5,0,0,1,1575.11,139.45Z"></path><path class="cls-15" d="M248.4,84.9a60.9,60.9,0,0,0-38.69-17.71,59.55,59.55,0,0,0-9.63,0l-131.59.44a2.92,2.92,0,0,0-2.08.86,3,3,0,0,0-.87,2.09L65.1,207.09h0a61.16,61.16,0,0,0,98.08,48.73,60.06,60.06,0,0,0,6.37-5.53A60.76,60.76,0,0,0,183,230.1a61.6,61.6,0,0,0,.57-44.67,61.57,61.57,0,0,0,44.64-.56,61.08,61.08,0,0,0,27.19-21.75A61.3,61.3,0,0,0,248.4,84.9Z"></path><path class="cls-16" d="M309.54,23.86A81.32,81.32,0,0,0,257.93.24a79.9,79.9,0,0,0-12.85,0l-121,.4,0,.32H104.93A39.43,39.43,0,0,0,65.5,40.42V61.81l-.09,0,0,5.81-5.73,0a.31.31,0,0,0,0,.1H39.85A39.43,39.43,0,0,0,.48,105L.42,124.16V129h0L0,253.89H0a81.6,81.6,0,0,0,162.15,13,80.92,80.92,0,0,0,1-11.09A61.14,61.14,0,0,1,65.11,207.1h0l.44-136.48a3,3,0,0,1,.87-2.09,2.92,2.92,0,0,1,2.08-.86l131.59-.44a59.55,59.55,0,0,1,9.63,0,61.15,61.15,0,0,1,45.66,95.93,83.43,83.43,0,0,0,12-1.39A81.61,81.61,0,0,0,309.54,23.86Z"></path><path class="cls-17" d="M846.93,363.46a15.4,15.4,0,0,1-1.28,5.2,12,12,0,0,1-3,4.06,13.34,13.34,0,0,1-4.57,2.65,18.22,18.22,0,0,1-6.13,1,15.8,15.8,0,0,1-6.41-1.24,13,13,0,0,1-4.82-3.55,16.05,16.05,0,0,1-3-5.62,24.07,24.07,0,0,1-1.06-7.41v-2.44a23.57,23.57,0,0,1,1.09-7.42,16.36,16.36,0,0,1,3.1-5.63,13.3,13.3,0,0,1,4.86-3.57,15.57,15.57,0,0,1,6.37-1.25,17.8,17.8,0,0,1,6.13,1,13,13,0,0,1,4.52,2.73,12.46,12.46,0,0,1,2.91,4.15A17.4,17.4,0,0,1,847,351.3h-7.65a12.18,12.18,0,0,0-.57-2.93,5.73,5.73,0,0,0-1.29-2.14,5.3,5.3,0,0,0-2.17-1.32,10.33,10.33,0,0,0-3.21-.44,6.49,6.49,0,0,0-5.77,2.81q-1.91,2.82-1.9,8.74v2.49a26.79,26.79,0,0,0,.42,5.05,10.76,10.76,0,0,0,1.32,3.62,5.91,5.91,0,0,0,2.35,2.18,7.71,7.71,0,0,0,3.48.73,10.68,10.68,0,0,0,3.12-.41,5.46,5.46,0,0,0,2.19-1.24,5.56,5.56,0,0,0,1.37-2.08,10.45,10.45,0,0,0,.61-2.9Z"></path><path class="cls-17" d="M858.65,351.25a9.92,9.92,0,0,1,3.23-2.59,9.07,9.07,0,0,1,4.14-.93,11.52,11.52,0,0,1,3.72.57,7,7,0,0,1,2.88,1.87,8.64,8.64,0,0,1,1.85,3.32,16.55,16.55,0,0,1,.65,4.95v17.38h-7.37V358.39a7.33,7.33,0,0,0-.29-2.22,3.42,3.42,0,0,0-.86-1.44,3,3,0,0,0-1.39-.78,7.09,7.09,0,0,0-1.87-.23,5.63,5.63,0,0,0-2.88.68,4.94,4.94,0,0,0-1.81,1.82v19.6h-7.37V336.67h7.37Z"></path><path class="cls-17" d="M879.53,361.78a17.38,17.38,0,0,1,.86-5.59,12.68,12.68,0,0,1,2.53-4.44A11.68,11.68,0,0,1,887,348.8a13.69,13.69,0,0,1,5.54-1.07,13.85,13.85,0,0,1,5.58,1.07,11.71,11.71,0,0,1,4.12,2.95,12.7,12.7,0,0,1,2.54,4.44,17.65,17.65,0,0,1,.86,5.59v.53a17.63,17.63,0,0,1-.86,5.6,12.84,12.84,0,0,1-2.54,4.43,11.57,11.57,0,0,1-4.09,2.93,15.14,15.14,0,0,1-11.13,0,11.51,11.51,0,0,1-4.1-2.93,12.84,12.84,0,0,1-2.54-4.43,17.35,17.35,0,0,1-.86-5.6Zm7.36.53a15.83,15.83,0,0,0,.31,3.16,7.64,7.64,0,0,0,1,2.56,5,5,0,0,0,1.76,1.72,5.21,5.21,0,0,0,7-1.72,7.44,7.44,0,0,0,1-2.56,15.12,15.12,0,0,0,.31-3.16v-.53a14.75,14.75,0,0,0-.31-3.1,7.8,7.8,0,0,0-1-2.58,5.17,5.17,0,0,0-1.79-1.75,5,5,0,0,0-2.65-.65,4.91,4.91,0,0,0-2.61.65,5.08,5.08,0,0,0-1.76,1.75,8,8,0,0,0-1,2.58,15.44,15.44,0,0,0-.31,3.1Zm1.56,19.63a3.43,3.43,0,0,1,.29-1.39,3.28,3.28,0,0,1,.83-1.12,3.89,3.89,0,0,1,1.29-.74,5,5,0,0,1,1.69-.27,5.11,5.11,0,0,1,1.71.27,3.84,3.84,0,0,1,1.3.74,3.28,3.28,0,0,1,.83,1.12,3.43,3.43,0,0,1,.29,1.39,3.28,3.28,0,0,1-1.12,2.52,3.72,3.72,0,0,1-1.3.76,5.38,5.38,0,0,1-1.71.26,5.21,5.21,0,0,1-1.69-.26,3.77,3.77,0,0,1-1.29-.76,3.28,3.28,0,0,1-1.12-2.52Z"></path><path class="cls-17" d="M917,348.24l.23,3.19a9.59,9.59,0,0,1,3.44-2.74,10.3,10.3,0,0,1,4.49-1,10.87,10.87,0,0,1,3.57.55,6.41,6.41,0,0,1,2.75,1.8,8.4,8.4,0,0,1,1.77,3.26,16.72,16.72,0,0,1,.63,4.94v17.54h-7.37V358.23a7.13,7.13,0,0,0-.29-2.19,3.2,3.2,0,0,0-.86-1.38,3.16,3.16,0,0,0-1.37-.72,7.21,7.21,0,0,0-1.89-.22,5.26,5.26,0,0,0-2.79.71,5.64,5.64,0,0,0-1.88,1.94v19.45H910V348.24Z"></path><path class="cls-17" d="M963.9,370.39a5.76,5.76,0,0,0,1.86-.29,4.3,4.3,0,0,0,1.45-.83,3.82,3.82,0,0,0,1-1.29,4.32,4.32,0,0,0,.37-1.69h6.91a9.54,9.54,0,0,1-.92,4,10,10,0,0,1-2.42,3.18,10.81,10.81,0,0,1-3.61,2.08,13.35,13.35,0,0,1-4.47.74,13.56,13.56,0,0,1-5.61-1.08,11.11,11.11,0,0,1-4-3,12.66,12.66,0,0,1-2.37-4.41,18.17,18.17,0,0,1-.79-5.47v-.71a18.33,18.33,0,0,1,.79-5.48,12.8,12.8,0,0,1,2.37-4.44,11.3,11.3,0,0,1,4-3,13.34,13.34,0,0,1,5.57-1.08,13.79,13.79,0,0,1,4.65.75,10.18,10.18,0,0,1,3.6,2.16,9.64,9.64,0,0,1,2.35,3.4,11.79,11.79,0,0,1,.87,4.47h-6.91a5.8,5.8,0,0,0-.35-1.87,4.49,4.49,0,0,0-.9-1.53,4.25,4.25,0,0,0-1.45-1,5.5,5.5,0,0,0-4.62.28,4.53,4.53,0,0,0-1.59,1.77,8.09,8.09,0,0,0-.78,2.56,22.6,22.6,0,0,0-.2,3v.71a22.83,22.83,0,0,0,.2,3,8,8,0,0,0,.78,2.55,4.45,4.45,0,0,0,1.59,1.74A4.94,4.94,0,0,0,963.9,370.39Z"></path><path class="cls-17" d="M986.84,351.25a10,10,0,0,1,3.22-2.59,9.14,9.14,0,0,1,4.15-.93,11.52,11.52,0,0,1,3.72.57,7,7,0,0,1,2.88,1.87,8.64,8.64,0,0,1,1.85,3.32,16.55,16.55,0,0,1,.65,4.95v17.38h-7.37V358.39a7.33,7.33,0,0,0-.29-2.22,3.42,3.42,0,0,0-.86-1.44,3,3,0,0,0-1.39-.78,7.09,7.09,0,0,0-1.87-.23,5.58,5.58,0,0,0-2.88.68,4.94,4.94,0,0,0-1.81,1.82v19.6h-7.37V336.67h7.37Z"></path><path class="cls-17" d="M1024.85,375.82a8.1,8.1,0,0,1-.74-2.47,9.56,9.56,0,0,1-2.82,2.11,9,9,0,0,1-4.14.87,10.94,10.94,0,0,1-3.71-.61,9.19,9.19,0,0,1-3-1.71,7.93,7.93,0,0,1-2-2.61,7.8,7.8,0,0,1-.71-3.33,8.92,8.92,0,0,1,.8-3.85,7.55,7.55,0,0,1,2.41-2.85,11.65,11.65,0,0,1,4-1.79,22.83,22.83,0,0,1,5.54-.61h3.29v-1.58a4.59,4.59,0,0,0-1-3.06,3.87,3.87,0,0,0-3.1-1.14,4.37,4.37,0,0,0-2.92.89,3,3,0,0,0-1,2.45h-7.37a7.39,7.39,0,0,1,.83-3.4,8.48,8.48,0,0,1,2.36-2.8,11.9,11.9,0,0,1,3.69-1.9,15.65,15.65,0,0,1,4.85-.7,15.3,15.3,0,0,1,4.43.61,10.07,10.07,0,0,1,3.52,1.83,8.2,8.2,0,0,1,2.3,3,10,10,0,0,1,.83,4.24v11.68c0,.78,0,1.48.08,2.1s.12,1.18.2,1.68a8.86,8.86,0,0,0,.34,1.35,7.21,7.21,0,0,0,.48,1.14v.43ZM1018,339h4.16l7.26,5.86h-5.5l-3.85-3.21-3.85,3.21h-5.48Zm.79,31.71a6.44,6.44,0,0,0,1.75-.23,5.88,5.88,0,0,0,1.44-.6,5.62,5.62,0,0,0,1.11-.85,5.12,5.12,0,0,0,.75-1v-4.74h-3a9.05,9.05,0,0,0-2.53.32,4.8,4.8,0,0,0-1.75.89,3.51,3.51,0,0,0-1,1.35,4.13,4.13,0,0,0-.34,1.7,3,3,0,0,0,1,2.27A3.79,3.79,0,0,0,1018.75,370.7Zm12.9-36.2h5.89l-5.79,6.93h-4.25Z"></path><path class="cls-17" d="M1045.67,341.46v6.78h4.72v5.4h-4.72v13.77a4.79,4.79,0,0,0,.18,1.43,2,2,0,0,0,.54.88,1.92,1.92,0,0,0,.88.43,5.56,5.56,0,0,0,1.23.11,11.28,11.28,0,0,0,1.21-.05,9.63,9.63,0,0,0,1-.12v5.58a19,19,0,0,1-2,.47,14.13,14.13,0,0,1-2.46.19,11,11,0,0,1-3.27-.45,6.16,6.16,0,0,1-2.48-1.41,6.33,6.33,0,0,1-1.59-2.52,11,11,0,0,1-.56-3.75V353.64h-4v-5.4h4v-6.78Z"></path><path class="cls-17" d="M1075.27,375.82h-7.4V336.67h7.4Z"></path><path class="cls-17" d="M1112.53,345.82a17.1,17.1,0,0,1-.38,3.77,7.86,7.86,0,0,1-1.26,2.86,6.35,6.35,0,0,1-2.32,1.92,10.49,10.49,0,0,1-3.58,1v20.49h-6.94l-.2-2.8a8.88,8.88,0,0,1-3.16,2.44,10.26,10.26,0,0,1-4.39.87,11.52,11.52,0,0,1-3.72-.57,7.43,7.43,0,0,1-2.89-1.81,8.27,8.27,0,0,1-1.87-3.19,14.38,14.38,0,0,1-.67-4.68V348.24h7.37v17.89a6,6,0,0,0,.29,2,3.37,3.37,0,0,0,.82,1.31,3.33,3.33,0,0,0,1.23.73,5.31,5.31,0,0,0,1.59.23,6.64,6.64,0,0,0,3.23-.69,4.68,4.68,0,0,0,1.91-1.91V348.24h7.4v3.52a4.36,4.36,0,0,0,1.67-.7,3.15,3.15,0,0,0,.95-1.21,5.83,5.83,0,0,0,.44-1.75c.06-.67.1-1.43.1-2.28Z"></path><path class="cls-17" d="M1112,361.78a17.65,17.65,0,0,1,.86-5.59,12.68,12.68,0,0,1,2.53-4.44,11.68,11.68,0,0,1,4.09-2.95,15,15,0,0,1,11.06,0,11.58,11.58,0,0,1,4.09,2.9,3.76,3.76,0,0,0,1.6-2.28,14.36,14.36,0,0,0,.42-3.73h4.46a13.14,13.14,0,0,1-1.07,5.59,6.73,6.73,0,0,1-3.44,3.35,15.52,15.52,0,0,1,1.13,3.37,17.93,17.93,0,0,1,.39,3.8v.53a17.35,17.35,0,0,1-.86,5.6,12.84,12.84,0,0,1-2.54,4.43,11.57,11.57,0,0,1-4.09,2.93,15.14,15.14,0,0,1-11.13,0,11.51,11.51,0,0,1-4.1-2.93,12.84,12.84,0,0,1-2.54-4.43,17.63,17.63,0,0,1-.86-5.6Zm7.36.53a15.83,15.83,0,0,0,.31,3.16,7.64,7.64,0,0,0,1,2.56,5,5,0,0,0,1.76,1.72,5.21,5.21,0,0,0,7-1.72,7.44,7.44,0,0,0,1-2.56,15.12,15.12,0,0,0,.31-3.16v-.53a14.75,14.75,0,0,0-.31-3.1,7.8,7.8,0,0,0-1-2.58,5.17,5.17,0,0,0-1.79-1.75,5,5,0,0,0-2.65-.65,4.91,4.91,0,0,0-2.61.65,5.08,5.08,0,0,0-1.76,1.75,8,8,0,0,0-1,2.58,15.44,15.44,0,0,0-.31,3.1Zm1.58,19.71a3.24,3.24,0,0,1,.3-1.39,3.19,3.19,0,0,1,.83-1.13,3.73,3.73,0,0,1,1.28-.73,5,5,0,0,1,1.7-.27,5.11,5.11,0,0,1,1.71.27,3.82,3.82,0,0,1,1.3.73,3.29,3.29,0,0,1,.82,1.13,3.39,3.39,0,0,1,0,2.79,3.45,3.45,0,0,1-.82,1.12,3.86,3.86,0,0,1-1.3.75,5.11,5.11,0,0,1-1.71.27,5,5,0,0,1-1.7-.27,3.76,3.76,0,0,1-1.28-.75,3.34,3.34,0,0,1-.83-1.12A3.26,3.26,0,0,1,1120.94,382Z"></path><path class="cls-17" d="M1150.31,348.24l.23,3.19a9.59,9.59,0,0,1,3.44-2.74,10.3,10.3,0,0,1,4.49-1,10.85,10.85,0,0,1,3.56.55,6.44,6.44,0,0,1,2.76,1.8,8.53,8.53,0,0,1,1.77,3.26,16.75,16.75,0,0,1,.62,4.94v17.54h-7.36V358.23a6.81,6.81,0,0,0-.3-2.19,3.18,3.18,0,0,0-.85-1.38,3.14,3.14,0,0,0-1.38-.72,7.08,7.08,0,0,0-1.88-.22,5.26,5.26,0,0,0-2.79.71,5.55,5.55,0,0,0-1.88,1.94v19.45h-7.36V348.24Z"></path><path class="cls-17" d="M1171.69,361.83a19.92,19.92,0,0,1,.78-5.74,13.61,13.61,0,0,1,2.22-4.46,10,10,0,0,1,3.5-2.88,10.44,10.44,0,0,1,4.67-1,9.49,9.49,0,0,1,4.14.82,8.27,8.27,0,0,1,2.92,2.29l.31-2.6h6.67v26.64a12.42,12.42,0,0,1-1,5,10.42,10.42,0,0,1-2.72,3.71,11.75,11.75,0,0,1-4.18,2.29,17.59,17.59,0,0,1-5.39.78,15.38,15.38,0,0,1-2.7-.26,15.21,15.21,0,0,1-2.82-.79,13.42,13.42,0,0,1-2.64-1.35,8.5,8.5,0,0,1-2.11-1.93l3.26-4.49a9.8,9.8,0,0,0,3,2.27,8.38,8.38,0,0,0,3.71.81,6.34,6.34,0,0,0,4.56-1.56,5.88,5.88,0,0,0,1.63-4.45v-1.48a8.38,8.38,0,0,1-2.88,2.13,9.17,9.17,0,0,1-3.82.75,9.9,9.9,0,0,1-4.63-1.06,10.32,10.32,0,0,1-3.49-2.92,13.6,13.6,0,0,1-2.22-4.42,19,19,0,0,1-.78-5.57Zm7.37.53a14.2,14.2,0,0,0,.33,3.14,7.7,7.7,0,0,0,1,2.53,5.1,5.1,0,0,0,1.75,1.71,4.85,4.85,0,0,0,2.51.63,5.88,5.88,0,0,0,3-.67,4.84,4.84,0,0,0,1.87-1.86v-11.6a4.94,4.94,0,0,0-1.87-1.87,5.88,5.88,0,0,0-2.89-.65,4.86,4.86,0,0,0-2.52.63,5.37,5.37,0,0,0-1.77,1.72,8.16,8.16,0,0,0-1,2.57,14,14,0,0,0-.35,3.19Z"></path><path class="cls-17" d="M1229.89,362.9h-14.35V357h14.35Z"></path><path class="cls-17" d="M1275.69,344.9h-11.36v30.92h-7.65V344.9h-11.22v-6.19h30.23Z"></path><path class="cls-17" d="M1293.41,355.15c-.37,0-.81-.1-1.31-.14s-.95-.07-1.34-.07a7.41,7.41,0,0,0-3.51.73,4.5,4.5,0,0,0-2,2.1v18.05h-7.37V348.24h7l.2,3.29a8.29,8.29,0,0,1,2.58-2.79,6.36,6.36,0,0,1,3.57-1,9,9,0,0,1,1.23.1,8.46,8.46,0,0,1,1.06.23Z"></path><path class="cls-17" d="M1294.89,361.78a17.65,17.65,0,0,1,.86-5.59,12.68,12.68,0,0,1,2.53-4.44,11.68,11.68,0,0,1,4.09-2.95,13.69,13.69,0,0,1,5.54-1.07,13.93,13.93,0,0,1,5.59,1.07,11.76,11.76,0,0,1,4.11,2.95,12.55,12.55,0,0,1,2.54,4.44,17.38,17.38,0,0,1,.87,5.59v.53a17.35,17.35,0,0,1-.87,5.6,12.68,12.68,0,0,1-2.54,4.43,11.48,11.48,0,0,1-4.09,2.93,15.11,15.11,0,0,1-11.12,0,11.47,11.47,0,0,1-4.11-2.93,12.84,12.84,0,0,1-2.54-4.43,17.63,17.63,0,0,1-.86-5.6Zm7.36.53a15.83,15.83,0,0,0,.31,3.16,7.64,7.64,0,0,0,1,2.56,5,5,0,0,0,1.76,1.72,5.11,5.11,0,0,0,2.66.64,5,5,0,0,0,2.62-.64,5.11,5.11,0,0,0,1.77-1.72,7.44,7.44,0,0,0,1-2.56,15.12,15.12,0,0,0,.31-3.16v-.53a14.75,14.75,0,0,0-.31-3.1,7.8,7.8,0,0,0-1-2.58,5.17,5.17,0,0,0-1.79-1.75,5,5,0,0,0-2.65-.65,4.91,4.91,0,0,0-2.61.65,5.08,5.08,0,0,0-1.76,1.75,8,8,0,0,0-1,2.58,15.44,15.44,0,0,0-.31,3.1Zm1.56,19.63a3.43,3.43,0,0,1,.29-1.39,3.28,3.28,0,0,1,.83-1.12,3.89,3.89,0,0,1,1.29-.74,5,5,0,0,1,1.69-.27,5.11,5.11,0,0,1,1.71.27,3.84,3.84,0,0,1,1.3.74,3.28,3.28,0,0,1,.83,1.12,3.43,3.43,0,0,1,.29,1.39,3.28,3.28,0,0,1-1.12,2.52,3.72,3.72,0,0,1-1.3.76,5.38,5.38,0,0,1-1.71.26,5.21,5.21,0,0,1-1.69-.26,3.77,3.77,0,0,1-1.29-.76,3.28,3.28,0,0,1-1.12-2.52Z"></path><path class="cls-17" d="M1332.33,348.24l.23,3.19a9.59,9.59,0,0,1,3.44-2.74,10.33,10.33,0,0,1,4.49-1,10.87,10.87,0,0,1,3.57.55,6.41,6.41,0,0,1,2.75,1.8,8.27,8.27,0,0,1,1.77,3.26,16.72,16.72,0,0,1,.63,4.94v17.54h-7.37V358.23a7.13,7.13,0,0,0-.29-2.19,3.2,3.2,0,0,0-.86-1.38,3.16,3.16,0,0,0-1.37-.72,7.16,7.16,0,0,0-1.89-.22,5.26,5.26,0,0,0-2.79.71,5.52,5.52,0,0,0-1.87,1.94v19.45h-7.37V348.24Z"></path><path class="cls-17" d="M1383.77,375.82a8.39,8.39,0,0,1-.74-2.47,9.51,9.51,0,0,1-2.81,2.11,9,9,0,0,1-4.15.87,10.88,10.88,0,0,1-3.7-.61,9.24,9.24,0,0,1-3-1.71,7.77,7.77,0,0,1-2-2.61,7.66,7.66,0,0,1-.72-3.33,8.78,8.78,0,0,1,.81-3.85,7.38,7.38,0,0,1,2.41-2.85,11.65,11.65,0,0,1,4-1.79,22.72,22.72,0,0,1,5.54-.61h3.29v-1.58a4.59,4.59,0,0,0-1-3.06,3.89,3.89,0,0,0-3.1-1.14,4.37,4.37,0,0,0-2.92.89,3,3,0,0,0-1.06,2.45h-7.36a7.38,7.38,0,0,1,.82-3.4,8.6,8.6,0,0,1,2.36-2.8,11.84,11.84,0,0,1,3.7-1.9,15.58,15.58,0,0,1,4.84-.7,15.32,15.32,0,0,1,4.44.61,9.94,9.94,0,0,1,3.51,1.83,8.12,8.12,0,0,1,2.31,3,10.18,10.18,0,0,1,.83,4.24v11.68c0,.78,0,1.48.08,2.1s.11,1.18.2,1.68a8.9,8.9,0,0,0,.33,1.35,8.32,8.32,0,0,0,.49,1.14v.43Zm-6.09-5.12a6.5,6.5,0,0,0,1.75-.23,6.22,6.22,0,0,0,1.44-.6A5.62,5.62,0,0,0,1382,369a5.12,5.12,0,0,0,.75-1v-4.74h-3a9,9,0,0,0-2.52.32,4.94,4.94,0,0,0-1.76.89,3.51,3.51,0,0,0-1,1.35,4.29,4.29,0,0,0-.33,1.7,3,3,0,0,0,1,2.27A3.77,3.77,0,0,0,1377.68,370.7Z"></path><path class="cls-17" d="M1402.56,348.24l.23,3.19a9.59,9.59,0,0,1,3.44-2.74,10.3,10.3,0,0,1,4.49-1,10.85,10.85,0,0,1,3.56.55,6.44,6.44,0,0,1,2.76,1.8,8.53,8.53,0,0,1,1.77,3.26,16.75,16.75,0,0,1,.62,4.94v17.54h-7.36V358.23a6.81,6.81,0,0,0-.3-2.19,3.18,3.18,0,0,0-.85-1.38,3.14,3.14,0,0,0-1.38-.72,7.08,7.08,0,0,0-1.88-.22,5.26,5.26,0,0,0-2.79.71,5.55,5.55,0,0,0-1.88,1.94v19.45h-7.36V348.24Z"></path><path class="cls-17" d="M1446.84,341.46v6.78h4.71v5.4h-4.71v13.77a4.82,4.82,0,0,0,.17,1.43,2,2,0,0,0,.54.88,2,2,0,0,0,.88.43,5.62,5.62,0,0,0,1.23.11,11.47,11.47,0,0,0,1.22-.05c.36,0,.68-.07.95-.12v5.58a19,19,0,0,1-2,.47,14,14,0,0,1-2.46.19,11,11,0,0,1-3.26-.45,6.13,6.13,0,0,1-2.49-1.41A6.33,6.33,0,0,1,1440,372a11,11,0,0,1-.56-3.75V353.64h-4v-5.4h4v-6.78Z"></path><path class="cls-17" d="M1471.64,375.82a8.1,8.1,0,0,1-.74-2.47,9.56,9.56,0,0,1-2.82,2.11,9,9,0,0,1-4.14.87,10.94,10.94,0,0,1-3.71-.61,9.19,9.19,0,0,1-3-1.71,7.93,7.93,0,0,1-2-2.61,7.8,7.8,0,0,1-.71-3.33,8.92,8.92,0,0,1,.8-3.85,7.55,7.55,0,0,1,2.41-2.85,11.65,11.65,0,0,1,4-1.79,22.83,22.83,0,0,1,5.54-.61h3.29v-1.58a4.59,4.59,0,0,0-1-3.06,3.87,3.87,0,0,0-3.1-1.14,4.37,4.37,0,0,0-2.92.89,3,3,0,0,0-1,2.45h-7.37a7.39,7.39,0,0,1,.83-3.4,8.48,8.48,0,0,1,2.36-2.8,11.9,11.9,0,0,1,3.69-1.9,15.65,15.65,0,0,1,4.85-.7,15.3,15.3,0,0,1,4.43.61,10.07,10.07,0,0,1,3.52,1.83,8.2,8.2,0,0,1,2.3,3,10,10,0,0,1,.83,4.24v11.68c0,.78,0,1.48.08,2.1s.12,1.18.2,1.68a8.86,8.86,0,0,0,.34,1.35,7.21,7.21,0,0,0,.48,1.14v.43Zm5-32v.3h-5.86l-3.93-3.69-3.93,3.69h-5.76v-.41l7.55-7H1469Zm-11.12,26.89a6.44,6.44,0,0,0,1.75-.23,5.88,5.88,0,0,0,1.44-.6,5.62,5.62,0,0,0,1.11-.85,5.12,5.12,0,0,0,.75-1v-4.74h-3a9.05,9.05,0,0,0-2.53.32,4.8,4.8,0,0,0-1.75.89,3.51,3.51,0,0,0-1,1.35,4.13,4.13,0,0,0-.34,1.7,3,3,0,0,0,1,2.27A3.79,3.79,0,0,0,1465.54,370.7Z"></path><path class="cls-17" d="M1490.55,348.24l.23,3.08a9.68,9.68,0,0,1,3.35-2.63,10.36,10.36,0,0,1,4.58-1,9.32,9.32,0,0,1,4.37,1,6.73,6.73,0,0,1,2.94,3.22,9.8,9.8,0,0,1,3.41-3.09,10,10,0,0,1,4.88-1.12,11.43,11.43,0,0,1,3.66.56,6.82,6.82,0,0,1,2.8,1.81,8.31,8.31,0,0,1,1.78,3.25,16.55,16.55,0,0,1,.63,4.91v17.56h-7.39V358.26a7.21,7.21,0,0,0-.3-2.27,3.17,3.17,0,0,0-.83-1.39,2.91,2.91,0,0,0-1.3-.69,7,7,0,0,0-1.73-.19,4.68,4.68,0,0,0-2.85.85,5.22,5.22,0,0,0-1.74,2.31c0,.09,0,.18,0,.28s0,.2,0,.28v18.38h-7.37V358.31a7.63,7.63,0,0,0-.28-2.27,3.34,3.34,0,0,0-.81-1.4,3,3,0,0,0-1.32-.72,7.17,7.17,0,0,0-1.74-.2,5.19,5.19,0,0,0-2.76.69,5,5,0,0,0-1.78,1.91v19.5h-7.37V348.24Z"></path><path class="cls-17" d="M1529.17,372.35a4.15,4.15,0,0,1,.29-1.55,3.65,3.65,0,0,1,.83-1.24,3.87,3.87,0,0,1,1.29-.81,4.5,4.5,0,0,1,1.69-.3,4.65,4.65,0,0,1,1.71.3,3.82,3.82,0,0,1,1.3.81,3.65,3.65,0,0,1,.83,1.24,4.15,4.15,0,0,1,.29,1.55,4.08,4.08,0,0,1-.29,1.55,3.77,3.77,0,0,1-.83,1.22,3.84,3.84,0,0,1-1.3.82,4.87,4.87,0,0,1-1.71.29,4.71,4.71,0,0,1-1.69-.29,3.9,3.9,0,0,1-1.29-.82,3.77,3.77,0,0,1-.83-1.22A4.08,4.08,0,0,1,1529.17,372.35Zm7.16-7.92h-6.12l-.86-25.72h7.85Z"></path></g></g></svg>